<svg xmlns="http://www.w3.org/2000/svg" xmlns:svg="http://www.w3.org/2000/svg" id="svg8" width="417.2" height="407.25" version="1.1" viewBox="0 0 417.2 407.25"><metadata id="metadata5"/><g id="Device" transform="translate(-68.791597,-394.02675)" style="display:inline"><path style="color:#000;display:inline;overflow:visible;opacity:1;fill:#d3d3ce;fill-opacity:1;stroke:#babdb6;stroke-width:1.5;stroke-linecap:butt;stroke-linejoin:miter;stroke-miterlimit:4;stroke-dasharray:none;stroke-dashoffset:0;stroke-opacity:1;marker:none;marker-start:none;marker-mid:none;marker-end:none;paint-order:normal" id="path870" d="m 266.16642,15.04496 c -22.92467,4.66104 -61.30054,24.9861 -69.63884,36.00461 -12.61957,47.68515 -14.80528,106.34213 -15.92423,155.87459 -2.00552,88.77814 32.07323,172.95939 100.58708,173.36506 46.62862,0.10701 67.422,-29.01299 84.50986,-68.69579 14.62944,-39.36304 14.98472,-73.16931 15.71414,-103.07446 0.40991,-66.33641 -5.20115,-105.262 -13.70975,-157.25734 C 354.76319,35.15715 299.72236,14.28047 297.61469,15.04496 v 5.05311 h -3.45953 v -5.05311 l -25.2862,3.5e-4 v 5.05276 l -2.70254,-10e-6 z" transform="translate(0,400.00009)"/><path style="display:inline;fill:#989896;fill-opacity:1;stroke:#babdb6;stroke-width:1px;stroke-linecap:butt;stroke-linejoin:miter;stroke-opacity:1" id="path1006" d="m 229.17383,21.009766 c -0.16635,-0.01757 -0.2857,-0.01608 -0.35156,0.0078 v 5.054688 h -3.45899 v -5.054688 l -25.28516,0.002 v 5.052735 H 197.375 v -5.054688 c -22.92467,4.66104 -61.30037,24.987349 -69.63867,36.00586 -11.37711,42.990297 -14.261,94.837567 -15.54102,140.937497 l 0.002,0.002 82.08984,-38.08008 c -0.097,0.0416 -1.55299,19.69858 16.98437,19.22852 18.53736,-0.47006 17.52732,-19.05273 17.55079,-19.06055 l 83.70898,37.93164 0.0488,-0.0996 C 312.02168,141.36823 306.68242,104.71806 298.91211,57.234375 286.37504,41.63316 234.33067,21.554483 229.17383,21.009766 Z" transform="translate(68.791597,394.02675)"/><path style="color:#000;display:inline;overflow:visible;opacity:1;fill:#d3d3ce;fill-opacity:1;stroke:#bfc2bb;stroke-width:1.5;stroke-linecap:square;stroke-linejoin:miter;stroke-miterlimit:4;stroke-dasharray:none;stroke-dashoffset:0;stroke-opacity:1;marker:none;marker-start:none;marker-mid:none;marker-end:none;paint-order:normal" id="button0" d="m 266.16185,15.045758 c -18.53203,3.769004 -47.15067,17.769904 -61.84571,28.81836 -11.15926,49.01809 -14.18353,94.599442 -16.57028,140.693352 l 75.52927,-35.0039 2.89062,-129.455077 h -0.004 z" transform="translate(0,400.00009)"/><path style="display:inline;fill:#d3d3ce;fill-opacity:1;stroke:#babdb6;stroke-width:1px;stroke-linecap:butt;stroke-linejoin:miter;stroke-opacity:1" id="path1008" d="m 132.05273,52.619141 c -1.82879,1.575925 -3.29915,3.06006 -4.3164,4.404297 -11.02439,41.657485 -14.08583,91.685452 -15.42969,136.691402 l 0.0527,-0.0137 3.71874,-1.73242 c 1.00541,-44.43893 6.38155,-97.490788 15.99415,-139.328125 0.001,-0.0054 -0.0176,-0.01533 -0.0195,-0.02148 z" transform="translate(68.791597,394.02675)"/><rect style="display:inline;opacity:1;fill:#d3d3ce;fill-opacity:1;stroke:#babdb6;stroke-width:1.5;stroke-miterlimit:4;stroke-dasharray:none;stroke-opacity:1" id="rect985" width="25.286" height="35.886" x="268.869" y="15.045" rx="0" ry="0" transform="translate(0,400.00009)"/><path style="display:inline;opacity:1;fill:#d3d3ce;fill-opacity:1;stroke:#babdb6;stroke-width:1.5;stroke-miterlimit:4;stroke-dasharray:none;stroke-opacity:1" id="rect1003" d="m 267.69435,112.88968 25.82029,0.0837 0.40098,45.62246 c -3.09214,13.17174 -23.47755,15.50099 -27.35134,0 z" transform="translate(0,400.00009)"/><rect id="button5" width="13.468" height="31.288" x="273.283" y="132.221" rx="6.152" ry="5.288" transform="translate(0,400.00009)" style="color:#000;display:inline;overflow:visible;opacity:1;fill:#fff;fill-opacity:1;stroke:#babdb6;stroke-width:.99999988;stroke-linecap:butt;stroke-linejoin:bevel;stroke-miterlimit:4;stroke-dasharray:none;stroke-dashoffset:0;stroke-opacity:1;marker:none;marker-start:none;marker-mid:none;marker-end:none;paint-order:normal"/><path style="display:inline;fill:#d3d3ce;fill-opacity:1;stroke:#babdb6;stroke-width:1px;stroke-linecap:butt;stroke-linejoin:miter;stroke-opacity:1" id="path1010" d="m 294.34961,52.697266 c 7.67404,38.319455 12.12064,93.009104 13.58789,139.437504 l 4.29102,2.33203 0.31445,0.13867 c -0.72941,-54.66832 -6.01154,-90.81008 -13.63086,-137.371095 -1.18866,-1.479179 -2.73716,-2.997879 -4.5625,-4.537109 z" transform="translate(68.791597,394.02675)"/><path style="color:#000;display:inline;overflow:visible;opacity:1;fill:#d3d3ce;fill-opacity:1;stroke:#bfc2bb;stroke-width:1.5;stroke-linecap:square;stroke-linejoin:miter;stroke-miterlimit:4;stroke-dasharray:none;stroke-dashoffset:0;stroke-opacity:1;marker:none;marker-start:none;marker-mid:none;marker-end:none;paint-order:normal" id="button1" d="m 297.61497,15.045758 v 5.052735 h -0.004 c -0.072,38.851502 0.17641,91.903097 0.004,129.455077 l 76.24024,35.0039 C 371.4683,138.46428 370.62141,92.883297 359.46263,43.866071 348.69198,36.04897 332.00497,28.07624 318.64622,22.491071 307.62271,18.054789 298.7509,15.065752 297.61497,15.045758 Z" transform="translate(0,400.00009)"/><rect style="color:#000;display:inline;overflow:visible;opacity:1;fill:#fff;fill-opacity:1;stroke:#babdb6;stroke-width:.99999982;stroke-linecap:butt;stroke-linejoin:bevel;stroke-miterlimit:4;stroke-dasharray:none;stroke-dashoffset:0;stroke-opacity:1;marker:none;marker-start:none;marker-mid:none;marker-end:none;paint-order:normal" id="button2" width="21.315" height="55.109" x="270.836" y="53.881" rx="10.657" ry="11.055" transform="translate(0,400.00009)"/><path style="color:#000;display:inline;overflow:visible;opacity:1;fill:#fff;fill-opacity:1;stroke:#babdb6;stroke-width:1;stroke-linecap:butt;stroke-linejoin:bevel;stroke-miterlimit:4;stroke-dasharray:none;stroke-dashoffset:0;stroke-opacity:1;marker:none;marker-start:none;marker-mid:none;marker-end:none;paint-order:normal" id="button4" d="m 183.47044,134.90318 -3.23828,3.46679 -2.36328,40.83203 3.375,2.76368 c 0.0158,-0.0318 0.0292,-0.0639 0.0449,-0.0957 0.4971,-15.01188 1.2161,-30.49256 2.37305,-45.99218 -0.0654,-0.32133 -0.12562,-0.6554 -0.19141,-0.97461 z" transform="translate(0,400.00009)"/><path style="color:#000;display:inline;overflow:visible;fill:none;fill-opacity:1;stroke:#babdb6;stroke-width:10;stroke-linecap:square;stroke-linejoin:bevel;stroke-miterlimit:4;stroke-dasharray:none;stroke-opacity:1" id="led0" d="m -319.14844,290.54175 a 13.376111,13.525835 0 0 1 -18.91668,0 13.376111,13.525835 0 0 1 0,-19.12842 13.376111,13.525835 0 0 1 18.91668,0" transform="rotate(-90,200.00004,200.00004)"/><path style="color:#000;display:inline;overflow:visible;opacity:1;fill:#fff;fill-opacity:1;stroke:#babdb6;stroke-width:1;stroke-linecap:butt;stroke-linejoin:bevel;stroke-miterlimit:4;stroke-dasharray:none;stroke-dashoffset:0;stroke-opacity:1;marker:none;marker-start:none;marker-mid:none;marker-end:none;paint-order:normal" id="button3" d="m 180.98802,191.98911 -3.65625,3.90235 0.70171,41.21448 3.55024,4.1781 c -0.0255,-0.32903 -0.0218,-0.78636 -0.0254,-1.21094 -0.88777,-10.87151 -1.20752,-21.97334 -0.95508,-33.14844 0.11017,-4.87659 0.24499,-9.90124 0.38477,-14.93555 z" transform="translate(0,400.00009)"/><path id="led1" d="m 381.38813,191.93864 c 0.0522,5.34015 0.0617,10.85826 0.0263,16.58033 -0.72942,29.90515 -1.0847,63.71142 -15.71414,103.07446 -17.08786,39.6828 -37.88124,68.8028 -84.50986,68.69579 -68.51385,-0.40567 -102.5926,-84.58692 -100.58708,-173.36506 0.11095,-4.91156 0.2425,-9.86517 0.38356,-14.93656 l 2.19839,0.0215 c -0.13796,4.95985 -0.26661,11.86142 -0.37513,16.66495 -1.96142,86.82554 31.36807,166.8792 98.37558,167.27594 45.60344,0.10466 65.93966,-26.09877 82.65183,-64.90878 14.30779,-38.49728 14.65526,-71.56001 15.36865,-100.80742 0.0346,-5.59622 0.0253,-13.00199 -0.0257,-18.22469 z" transform="translate(0,400.00009)" style="color:#000;display:inline;overflow:visible;opacity:1;fill:#babdb6;fill-opacity:1;stroke:#babdb6;stroke-width:1.5;stroke-linecap:butt;stroke-linejoin:miter;stroke-miterlimit:4;stroke-dasharray:none;stroke-dashoffset:0;stroke-opacity:1;marker:none;marker-start:none;marker-mid:none;marker-end:none;paint-order:normal"/></g><g id="Buttons" transform="translate(-68.791597,5.973336)" style="display:inline"><g id="button4-path"><path id="path964" d="M 69.397827,158.3947 H 177.72623" style="color:#000;overflow:visible;opacity:1;fill:none;fill-opacity:1;stroke:#888a85;stroke-width:.99999994;stroke-linecap:square;stroke-linejoin:miter;stroke-miterlimit:4;stroke-dasharray:none;stroke-dashoffset:0;stroke-opacity:1;marker:none;marker-start:none;marker-mid:none;marker-end:none;paint-order:normal"/><rect style="color:#000;text-align:end;overflow:visible;fill:#888a85;fill-opacity:1;stroke:none;stroke-linecap:round" id="button4-leader" width="1" height="1" x="68.807" y="157.895"/><rect id="rect974" width="7" height="7" x="174.226" y="154.895" style="color:#000;overflow:visible;opacity:1;fill:#2e3436;fill-opacity:1;stroke:none;stroke-width:2;stroke-linecap:square;stroke-linejoin:miter;stroke-miterlimit:4;stroke-dasharray:none;stroke-dashoffset:0;stroke-opacity:1;marker:none;marker-start:none;marker-mid:none;marker-end:none;paint-order:normal"/></g><g id="button3-path"><path style="color:#000;overflow:visible;opacity:1;fill:none;fill-opacity:1;stroke:#888a85;stroke-width:1;stroke-linecap:square;stroke-linejoin:miter;stroke-miterlimit:4;stroke-dasharray:none;stroke-dashoffset:0;stroke-opacity:1;marker:none;marker-start:none;marker-mid:none;marker-end:none;paint-order:normal" id="path966" d="M 69.516354,216.62752 H 176.10094"/><rect id="button3-leader" width="1" height="1" x="68.814" y="216.128" style="color:#000;text-align:end;overflow:visible;fill:#888a85;fill-opacity:1;stroke:none;stroke-linecap:round"/><rect style="color:#000;overflow:visible;opacity:1;fill:#2e3436;fill-opacity:1;stroke:none;stroke-width:2;stroke-linecap:square;stroke-linejoin:miter;stroke-miterlimit:4;stroke-dasharray:none;stroke-dashoffset:0;stroke-opacity:1;marker:none;marker-start:none;marker-mid:none;marker-end:none;paint-order:normal" id="rect976" width="7" height="7" x="172.601" y="213.128"/></g><g id="button5-path"><rect id="button5-leader" width="1" height="1" x="485" y="147.485" style="color:#000;text-align:start;overflow:visible;fill:#888a85;fill-opacity:1;stroke:none;stroke-linecap:round"/><path style="color:#000;overflow:visible;opacity:1;fill:none;fill-opacity:1;stroke:#888a85;stroke-width:1;stroke-linecap:square;stroke-linejoin:miter;stroke-miterlimit:4;stroke-dasharray:none;stroke-dashoffset:0;stroke-opacity:1;marker:none;marker-start:none;marker-mid:none;marker-end:none;paint-order:normal" id="path51" d="M 484.55132,147.9915 H 280.86242"/><rect style="color:#000;overflow:visible;opacity:1;fill:#2e3436;fill-opacity:1;stroke:none;stroke-width:2;stroke-linecap:square;stroke-linejoin:miter;stroke-miterlimit:4;stroke-dasharray:none;stroke-dashoffset:0;stroke-opacity:1;marker:none;marker-start:none;marker-mid:none;marker-end:none;paint-order:normal" id="rect53" width="7" height="7" x="276.517" y="144.365"/></g><g id="button2-path"><rect id="button2-leader" width="1" height="1" x="485" y="80.935" style="color:#000;text-align:start;overflow:visible;fill:#888a85;fill-opacity:1;stroke:none;stroke-linecap:round"/><path style="color:#000;overflow:visible;opacity:1;fill:none;fill-opacity:1;stroke:#888a85;stroke-width:1;stroke-linecap:square;stroke-linejoin:miter;stroke-miterlimit:4;stroke-dasharray:none;stroke-dashoffset:0;stroke-opacity:1;marker:none;marker-start:none;marker-mid:none;marker-end:none;paint-order:normal" id="path908" d="m 281.49336,81.435307 203.01408,2e-6"/><rect style="color:#000;overflow:visible;opacity:1;fill:#2e3436;fill-opacity:1;stroke:none;stroke-width:2;stroke-linecap:square;stroke-linejoin:miter;stroke-miterlimit:4;stroke-dasharray:none;stroke-dashoffset:0;stroke-opacity:1;marker:none;marker-start:none;marker-mid:none;marker-end:none;paint-order:normal" id="rect910" width="7" height="7" x="277.993" y="77.935"/></g><g id="button1-path" transform="translate(0,-11.999703)"><rect style="color:#000;text-align:start;overflow:visible;fill:#888a85;fill-opacity:1;stroke:none;stroke-linecap:round" id="button1-leader" width="1" height="1" x="485" y="52.581"/><path style="color:#000;overflow:visible;opacity:1;fill:none;fill-opacity:1;stroke:#888a85;stroke-width:.99999994;stroke-linecap:square;stroke-linejoin:miter;stroke-miterlimit:4;stroke-dasharray:none;stroke-dashoffset:0;stroke-opacity:1;marker:none;marker-start:none;marker-mid:none;marker-end:none;paint-order:normal" id="path958" d="M 329.18291,53.081369 H 485.00002"/><rect style="color:#000;overflow:visible;opacity:1;fill:#2e3436;fill-opacity:1;stroke:none;stroke-width:2;stroke-linecap:square;stroke-linejoin:miter;stroke-miterlimit:4;stroke-dasharray:none;stroke-dashoffset:0;stroke-opacity:1;marker:none;marker-start:none;marker-mid:none;marker-end:none;paint-order:normal" id="rect968" width="7" height="7" x="325.295" y="49.581"/></g><g id="button0-path"><rect style="color:#000;text-align:end;overflow:visible;fill:#888a85;fill-opacity:1;stroke:none;stroke-linecap:round" id="button0-leader" width="1" height="1" x="68.719" y="52.581"/><path id="path960" d="m 236.34967,53.081367 -166.192195,2e-6" style="color:#000;overflow:visible;opacity:1;fill:none;fill-opacity:1;stroke:#888a85;stroke-width:1;stroke-linecap:square;stroke-linejoin:miter;stroke-miterlimit:4;stroke-dasharray:none;stroke-dashoffset:0;stroke-opacity:1;marker:none;marker-start:none;marker-mid:none;marker-end:none;paint-order:normal"/><rect id="rect970" width="7" height="7" x="232.85" y="49.581" style="color:#000;overflow:visible;opacity:1;fill:#2e3436;fill-opacity:1;stroke:none;stroke-width:2;stroke-linecap:square;stroke-linejoin:miter;stroke-miterlimit:4;stroke-dasharray:none;stroke-dashoffset:0;stroke-opacity:1;marker:none;marker-start:none;marker-mid:none;marker-end:none;paint-order:normal"/></g></g><g id="LEDs" transform="translate(-68.791597,5.973336)" style="display:inline"><g id="led0-path"><path id="path877" d="M 485,329.52026 H 281.05416" style="color:#000;display:inline;overflow:visible;opacity:1;fill:none;fill-opacity:1;stroke:#888a85;stroke-width:1;stroke-linecap:square;stroke-linejoin:miter;stroke-miterlimit:4;stroke-dasharray:none;stroke-dashoffset:0;stroke-opacity:1;marker:none;marker-start:none;marker-mid:none;marker-end:none;paint-order:normal"/><rect id="rect879" width="7" height="7" x="277.478" y="326.02" style="color:#000;display:inline;overflow:visible;opacity:1;fill:#2e3436;fill-opacity:1;stroke:none;stroke-width:2;stroke-linecap:square;stroke-linejoin:miter;stroke-miterlimit:4;stroke-dasharray:none;stroke-dashoffset:0;stroke-opacity:1;marker:none;marker-start:none;marker-mid:none;marker-end:none;paint-order:normal"/><rect id="led0-leader" width="1" height="1" x="485" y="329.02" style="color:#000;text-align:start;display:inline;overflow:visible;fill:#888a85;fill-opacity:1;stroke:none;stroke-linecap:round"/></g><g id="led1-path"><path style="color:#000;display:inline;overflow:visible;opacity:1;fill:none;fill-opacity:1;stroke:#888a85;stroke-width:1;stroke-linecap:square;stroke-linejoin:miter;stroke-miterlimit:4;stroke-dasharray:none;stroke-dashoffset:0;stroke-opacity:1;marker:none;marker-start:none;marker-mid:none;marker-end:none;paint-order:normal" id="path4525" d="M 484.99745,272.95285 H 379.23883"/><rect style="color:#000;text-align:start;display:inline;overflow:visible;fill:#888a85;fill-opacity:1;stroke:none;stroke-linecap:round" id="led1-leader" width="1" height="1" x="485" y="272.453"/><rect style="color:#000;display:inline;overflow:visible;opacity:1;fill:#2e3436;fill-opacity:1;stroke:none;stroke-width:2;stroke-linecap:square;stroke-linejoin:miter;stroke-miterlimit:4;stroke-dasharray:none;stroke-dashoffset:0;stroke-opacity:1;marker:none;marker-start:none;marker-mid:none;marker-end:none;paint-order:normal" id="rect4544" width="7" height="7" x="375.739" y="269.453"/></g></g></svg>