<svg xmlns="http://www.w3.org/2000/svg" xmlns:svg="http://www.w3.org/2000/svg" id="svg8" width="409.208" height="411.271" version="1.1" viewBox="0 0 409.208 411.271"><metadata id="metadata5"/><g id="Device" transform="translate(-68.791597,-390.00576)" style="display:inline;opacity:1"><path id="path950" d="m 134.36546,419.51033 c -32.1034,44.06568 -38.250666,88.78703 -35.439504,130.61916 4.048624,60.24641 36.900534,102.9714 56.085204,131.56235 29.34793,43.73727 31.62003,58.26635 28.72613,70.70827 -2.44369,10.50633 -9.36244,21.35458 -9.36244,21.35458 -39.64793,-13.47214 -73.6149,-61.22849 -69.14685,-148.5713 0.12346,-2.41357 7.66154,16.58211 13.41429,14.15899 4.43131,-1.86651 -15.39157,-32.31433 -19.698702,-49.69306 C 89.79516,552.73656 83.101562,485.14999 134.36546,419.51033 Z" style="color:#000;overflow:visible;opacity:1;vector-effect:none;fill:#d3d3ce;fill-opacity:1;stroke:#babdb6;stroke-width:1;stroke-linecap:square;stroke-linejoin:miter;stroke-miterlimit:4;stroke-dasharray:none;stroke-dashoffset:0;stroke-opacity:1;marker:none;marker-start:none;marker-mid:none;marker-end:none;paint-order:normal"/><path style="color:#000;overflow:visible;opacity:1;vector-effect:none;fill:#fff;fill-opacity:1;stroke:#babdb6;stroke-width:1;stroke-linecap:butt;stroke-linejoin:bevel;stroke-miterlimit:4;stroke-dasharray:none;stroke-dashoffset:0;stroke-opacity:1;marker:none;marker-start:none;marker-mid:none;marker-end:none;paint-order:normal" id="button4" d="m 92.874939,518.37875 c 0.144869,15.84123 -0.351344,30.56844 2.035881,49.24367 -7.559859,2.44229 -9.737964,-35.18962 -2.035881,-49.24367 z"/><path id="button3" d="m 95.115999,569.31083 c -12.282246,2.81321 11.935001,72.96065 23.362631,70.12188 5.94103,-2.07837 -20.494383,-37.06368 -23.362631,-70.12188 z" style="color:#000;overflow:visible;opacity:1;vector-effect:none;fill:#fff;fill-opacity:1;stroke:#babdb6;stroke-width:1;stroke-linecap:butt;stroke-linejoin:bevel;stroke-miterlimit:4;stroke-dasharray:none;stroke-dashoffset:0;stroke-opacity:1;marker:none;marker-start:none;marker-mid:none;marker-end:none;paint-order:normal"/><rect style="color:#000;overflow:visible;opacity:1;vector-effect:none;fill:#fff;fill-opacity:1;stroke:#babdb6;stroke-width:1;stroke-linecap:butt;stroke-linejoin:bevel;stroke-miterlimit:4;stroke-dasharray:none;stroke-dashoffset:0;stroke-opacity:1;marker:none;marker-start:none;marker-mid:none;marker-end:none;paint-order:normal" id="button2" width="23.156" height="69.468" x="187.919" y="451.261" rx="11.578" ry="11.578"/><path id="dummy_button" d="m 208.57282,542.24549 -0.65676,17.92859 c -0.16469,4.49569 -3.83301,8.12045 -8.59419,8.12045 -4.76117,0 -8.49995,-3.62273 -8.59417,-8.12045 l -0.65677,-17.92859 z" style="color:#000;overflow:visible;opacity:1;vector-effect:none;fill:#fff;fill-opacity:1;stroke:#babdb6;stroke-width:1;stroke-linecap:butt;stroke-linejoin:bevel;stroke-miterlimit:4;stroke-dasharray:none;stroke-dashoffset:0;stroke-opacity:1;marker:none;marker-start:none;marker-mid:none;marker-end:none;paint-order:normal"/><path style="opacity:1;fill:#4d4d4d;stroke:#bfc2bb;stroke-width:2;stroke-linecap:butt;stroke-linejoin:miter;stroke-miterlimit:4;stroke-dasharray:none;stroke-opacity:1" id="path55" d="m 199.0734,420.47153 -0.0212,30.55574"/><path style="opacity:1;fill:#4d4d4d;stroke:#bfc2bb;stroke-width:2;stroke-linecap:butt;stroke-linejoin:miter;stroke-miterlimit:4;stroke-dasharray:none;stroke-opacity:1" id="path57" d="m 199.34376,542.55698 c 0,-21.03371 0.23142,-21.03371 0.23142,-21.03371 v 0"/><path style="opacity:1;fill:#4d4d4d;stroke:#bfc2bb;stroke-width:2;stroke-linecap:butt;stroke-linejoin:miter;stroke-miterlimit:4;stroke-dasharray:none;stroke-opacity:1" id="path59" d="m 199.2676,568.73186 0.0633,39.50012"/><path style="display:inline;opacity:1;fill:#fff;stroke:#babdb6;stroke-width:1px;stroke-linecap:butt;stroke-linejoin:miter;stroke-opacity:1" id="path920" d="m 65.573866,29.504567 12.970465,-0.04193 c -46.952612,66.607 -39.25832,137.434673 -13.640008,192.741493 5.407718,11.6746 13.121148,22.10102 19.124141,32.58399 19.428466,33.92773 72.183546,78.97221 34.320206,132.55782 l -12.76542,-3.59701 c 23.04906,-37.4308 3.65589,-56.09704 -31.994645,-111.04748 -25.147073,-38.7608 -50.809736,-79.7729 -41.576942,-162.64463 2.622015,-23.534689 9.95749,-41.623077 33.562203,-80.552253 z" transform="translate(68.791597,390.00576)"/><path style="display:inline;opacity:1;fill:#d3d3ce;fill-opacity:1;stroke:#babdb6;stroke-width:1px;stroke-linecap:butt;stroke-linejoin:miter;stroke-opacity:1" id="button0" d="m 78.544331,29.462637 49.004659,1.630479 0.0937,28.087366 c -7.06584,1.939444 -11.05204,6.739521 -10.97025,13.231795 v 48.411043 c 0.55597,7.44476 4.53613,10.58698 11.42741,12.27391 v 16.25262 h -9.61689 v 23.26223 c 0.79081,3.40719 2.77986,6.54472 8.77968,8.77968 v 37.93226 H 63.344801 C 33.975314,152.23973 40.091888,82.391497 78.544331,29.462637 Z" transform="translate(68.791597,390.00576)"/><path style="display:inline;opacity:1;fill:#d3d3ce;fill-opacity:1;stroke:#babdb6;stroke-width:1px;stroke-linecap:butt;stroke-linejoin:miter;stroke-opacity:1" id="button1" d="m 133.08336,31.243468 0.0381,27.826048 c 4.51626,0.577422 10.67575,4.570262 11.50851,11.493699 l 0.001,48.533095 c -0.13326,4.63993 -2.34723,11.62657 -11.45528,13.86363 l 0.0183,16.40475 9.44037,0.006 -0.30301,23.01617 c -1.29233,4.27806 -4.33453,8.00054 -8.86853,8.92742 l 0.0251,37.80663 86.38424,0.0299 c -3.55318,-33.63361 0.31989,-51.10663 -7.05298,-99.23152 C 204.64011,66.53207 203.7966,40.115242 133.0833,31.243488 Z" transform="translate(68.791597,390.00576)"/><path style="display:inline;opacity:1;fill:#d3d3ce;fill-opacity:1;stroke:#babdb6;stroke-width:1px;stroke-linecap:butt;stroke-linejoin:miter;stroke-opacity:1" id="path1259" d="M 63.344801,219.32402 219.87222,219.15071 C 239.9237,330.27301 194.03419,393.5234 118.34867,387.34594 158.48163,327.67734 98.157771,289.0612 63.344801,219.32402 Z" transform="translate(68.791597,390.00576)"/><path style="color:#000;display:inline;overflow:visible;opacity:1;vector-effect:none;fill:#888a85;fill-opacity:1;stroke:none;stroke-width:1;stroke-linecap:butt;stroke-linejoin:bevel;stroke-miterlimit:4;stroke-dasharray:none;stroke-dashoffset:0;stroke-opacity:1;marker:none;marker-start:none;marker-mid:none;marker-end:none;paint-order:normal" id="button5" d="m 181.23965,481.55695 v 7.97553 l -3.83319,-3.83321 z"/><path id="button6" d="m 217.40647,481.55695 v 7.97553 l 3.83318,-3.83321 z" style="color:#000;display:inline;overflow:visible;opacity:1;vector-effect:none;fill:#888a85;fill-opacity:1;stroke:none;stroke-width:1;stroke-linecap:butt;stroke-linejoin:bevel;stroke-miterlimit:4;stroke-dasharray:none;stroke-dashoffset:0;stroke-opacity:1;marker:none;marker-start:none;marker-mid:none;marker-end:none;paint-order:normal"/></g><g id="Buttons" transform="translate(-68.791597,9.994236)" style="display:inline"><g id="button3-path" transform="translate(0.00602228,22.999653)" style="display:inline"><path style="color:#000;overflow:visible;opacity:1;vector-effect:none;fill:none;fill-opacity:1;stroke:#888a85;stroke-width:1;stroke-linecap:square;stroke-linejoin:miter;stroke-miterlimit:4;stroke-dasharray:none;stroke-dashoffset:0;stroke-opacity:1;marker:none;marker-start:none;marker-mid:none;marker-end:none;paint-order:normal" id="path966-6" d="m 113.67879,206.48213 32.92308,44.02363 330.39813,0"/><rect style="color:#000;overflow:visible;opacity:1;vector-effect:none;fill:#2e3436;fill-opacity:1;stroke:none;stroke-width:2;stroke-linecap:square;stroke-linejoin:miter;stroke-miterlimit:4;stroke-dasharray:none;stroke-dashoffset:0;stroke-opacity:1;marker:none;marker-start:none;marker-mid:none;marker-end:none;paint-order:normal" id="rect976-7" width="7" height="7" x="106.679" y="199.482"/><rect id="button3-leader" width="1" height="1" x="477" y="250.006" style="color:#000;text-align:start;overflow:visible;vector-effect:none;fill:#888a85;fill-opacity:1;stroke:none;stroke-linecap:round"/></g><g id="button0-path" transform="translate(-0.13752416,-16.74873)"><path style="color:#000;overflow:visible;opacity:1;vector-effect:none;fill:none;fill-opacity:1;stroke:#888a85;stroke-width:.994338;stroke-linecap:square;stroke-linejoin:miter;stroke-miterlimit:4;stroke-dasharray:none;stroke-dashoffset:0;stroke-opacity:1;marker:none;marker-start:none;marker-mid:none;marker-end:none;paint-order:normal" id="path958" d="m 170.25942,50.505764 c 80.20835,0.561122 230.12479,0.09512 306.74058,0"/><rect style="color:#000;overflow:visible;opacity:1;vector-effect:none;fill:#2e3436;fill-opacity:1;stroke:none;stroke-width:2;stroke-linecap:square;stroke-linejoin:miter;stroke-miterlimit:4;stroke-dasharray:none;stroke-dashoffset:0;stroke-opacity:1;marker:none;marker-start:none;marker-mid:none;marker-end:none;paint-order:normal" id="rect968" width="7" height="7" x="162.946" y="46.754"/><rect style="color:#000;text-align:start;overflow:visible;vector-effect:none;fill:#888a85;fill-opacity:1;stroke:none;stroke-linecap:round" id="button0-leader" width="1" height="1" x="477" y="50.006"/></g><g id="button6-path" transform="translate(0,-16.999996)"><path id="path960" d="M 477,130.50576 H 238.96687 L 214.7576,106.14315" style="color:#000;overflow:visible;opacity:1;vector-effect:none;fill:none;fill-opacity:1;stroke:#888a85;stroke-width:1;stroke-linecap:square;stroke-linejoin:miter;stroke-miterlimit:4;stroke-dasharray:none;stroke-dashoffset:0;stroke-opacity:1;marker:none;marker-start:none;marker-mid:none;marker-end:none;paint-order:normal"/><rect id="rect970" width="7" height="7" x="207.758" y="99.143" style="color:#000;overflow:visible;opacity:1;vector-effect:none;fill:#2e3436;fill-opacity:1;stroke:none;stroke-width:2;stroke-linecap:square;stroke-linejoin:miter;stroke-miterlimit:4;stroke-dasharray:none;stroke-dashoffset:0;stroke-opacity:1;marker:none;marker-start:none;marker-mid:none;marker-end:none;paint-order:normal"/><rect style="color:#000;text-align:start;overflow:visible;vector-effect:none;fill:#888a85;fill-opacity:1;stroke:none;stroke-linecap:round" id="button6-leader" width="1" height="1" x="477" y="130.006"/></g><g id="button1-path" transform="translate(-0.65931765,-16.919109)"><rect id="button1-leader" width="1" height="1" x="477" y="90.006" style="color:#000;text-align:start;overflow:visible;vector-effect:none;fill:#888a85;fill-opacity:1;stroke:none;stroke-linecap:round"/><path style="color:#000;overflow:visible;opacity:1;vector-effect:none;fill:none;fill-opacity:1;stroke:#888a85;stroke-width:.875155;stroke-linecap:square;stroke-linejoin:miter;stroke-miterlimit:4;stroke-dasharray:none;stroke-dashoffset:0;stroke-opacity:1;marker:none;marker-start:none;marker-mid:none;marker-end:none;paint-order:normal" id="path908" d="M 246.47893,90.00576 H 477"/><rect style="color:#000;overflow:visible;opacity:1;vector-effect:none;fill:#2e3436;fill-opacity:1;stroke:none;stroke-width:2;stroke-linecap:square;stroke-linejoin:miter;stroke-miterlimit:4;stroke-dasharray:none;stroke-dashoffset:0;stroke-opacity:1;marker:none;marker-start:none;marker-mid:none;marker-end:none;paint-order:normal" id="rect910" width="7" height="7" x="239.276" y="86.925"/></g><g id="button4-path" transform="translate(0,-17.000347)"><path style="color:#000;overflow:visible;opacity:1;vector-effect:none;fill:none;fill-opacity:1;stroke:#888a85;stroke-width:1;stroke-linecap:square;stroke-linejoin:miter;stroke-miterlimit:4;stroke-dasharray:none;stroke-dashoffset:0;stroke-opacity:1;marker:none;marker-start:none;marker-mid:none;marker-end:none;paint-order:normal" id="path966" d="m 93.680496,166.24585 65.774564,84.25991 H 477"/><rect style="color:#000;overflow:visible;opacity:1;vector-effect:none;fill:#2e3436;fill-opacity:1;stroke:none;stroke-width:2;stroke-linecap:square;stroke-linejoin:miter;stroke-miterlimit:4;stroke-dasharray:none;stroke-dashoffset:0;stroke-opacity:1;marker:none;marker-start:none;marker-mid:none;marker-end:none;paint-order:normal" id="rect976" width="7" height="7" x="86.68" y="159.246"/><rect id="button4-leader" width="1" height="1" x="477" y="250.006" style="color:#000;text-align:start;overflow:visible;vector-effect:none;fill:#888a85;fill-opacity:1;stroke:none;stroke-linecap:round"/></g><g id="button5-path" transform="translate(0,-16.994579)"><path style="color:#000;overflow:visible;opacity:1;vector-effect:none;fill:none;fill-opacity:1;stroke:#888a85;stroke-width:1;stroke-linecap:square;stroke-linejoin:miter;stroke-miterlimit:4;stroke-dasharray:none;stroke-dashoffset:0;stroke-opacity:1;marker:none;marker-start:none;marker-mid:none;marker-end:none;paint-order:normal" id="path51" d="m 476.55132,170.50615 -225.4209,-0.12228 -60.1305,-64.52153"/><rect style="color:#000;overflow:visible;opacity:1;vector-effect:none;fill:#2e3436;fill-opacity:1;stroke:none;stroke-width:2;stroke-linecap:square;stroke-linejoin:miter;stroke-miterlimit:4;stroke-dasharray:none;stroke-dashoffset:0;stroke-opacity:1;marker:none;marker-start:none;marker-mid:none;marker-end:none;paint-order:normal" id="rect53" width="7" height="7" x="184" y="98.862"/><rect id="button5-leader" width="1" height="1" x="477" y="170" style="color:#000;text-align:start;overflow:visible;vector-effect:none;fill:#888a85;fill-opacity:1;stroke:none;stroke-linecap:round"/></g><g id="button2-path" transform="translate(-0.65915984,103.08089)" style="display:inline"><rect id="button2-leader" width="1" height="1" x="477" y="90.006" style="color:#000;text-align:start;overflow:visible;vector-effect:none;fill:#888a85;fill-opacity:1;stroke:none;stroke-linecap:round"/><path style="color:#000;overflow:visible;opacity:1;vector-effect:none;fill:none;fill-opacity:1;stroke:#888a85;stroke-width:.875155;stroke-linecap:square;stroke-linejoin:miter;stroke-miterlimit:4;stroke-dasharray:none;stroke-dashoffset:0;stroke-opacity:1;marker:none;marker-start:none;marker-mid:none;marker-end:none;paint-order:normal" id="path908-2" d="M 203.56323,13.865871 270.84165,90.00576 H 477"/><rect style="color:#000;overflow:visible;opacity:1;vector-effect:none;fill:#2e3436;fill-opacity:1;stroke:none;stroke-width:2;stroke-linecap:square;stroke-linejoin:miter;stroke-miterlimit:4;stroke-dasharray:none;stroke-dashoffset:0;stroke-opacity:1;marker:none;marker-start:none;marker-mid:none;marker-end:none;paint-order:normal" id="rect910-7" width="7" height="7" x="196.563" y="6.866"/></g></g></svg>